<svg width="11" height="18" viewBox="0 0 11 18" fill="none" xmlns="http://www.w3.org/2000/svg">
<path fill-rule="evenodd" clip-rule="evenodd" d="M6.21926 10.0239C4.46788 11.425 2.3234 13.5583 0.882081 16.4411L3.11816 17.5591C4.34351 15.1083 6.19903 13.2417 7.78098 11.9761C8.56752 11.3469 9.27424 10.876 9.78022 10.5646C10.0329 10.4092 10.2344 10.2941 10.3696 10.2196C10.4371 10.1823 10.488 10.1552 10.5202 10.1383L10.5544 10.1206L10.5591 10.1181L10.5597 10.1178C10.5597 10.1178 10.5596 10.1179 10.5591 10.1169L10.5591 7.88333C10.5597 7.88232 10.5597 7.88233 10.5597 7.88235L10.5591 7.88205L10.5544 7.87963L10.5203 7.8619C10.488 7.84498 10.4371 7.81788 10.3696 7.78061C10.2344 7.70604 10.0329 7.59098 9.78025 7.43551C9.27426 7.12413 8.56754 6.65323 7.781 6.02398C6.19904 4.7584 4.34351 2.89169 3.11816 0.440918L0.88208 1.55893C2.3234 4.44165 4.46787 6.57502 6.21925 7.97614C6.71526 8.37296 7.18369 8.7142 7.60144 9.00006C7.1837 9.28591 6.71527 9.62713 6.21926 10.0239Z" fill="black"/>
</svg>
