<svg width="11" height="18" viewBox="0 0 11 18" fill="none" xmlns="http://www.w3.org/2000/svg">
<path fill-rule="evenodd" clip-rule="evenodd" d="M4.78074 10.0239C6.53212 11.425 8.6766 13.5583 10.1179 16.4411L7.88184 17.5591C6.65649 15.1083 4.80097 13.2417 3.21902 11.9761C2.43248 11.3469 1.72576 10.876 1.21978 10.5646C0.967142 10.4092 0.765585 10.2941 0.630431 10.2196C0.562884 10.1823 0.512021 10.1552 0.479765 10.1383L0.445613 10.1206L0.44089 10.1181L0.440295 10.1178C0.440322 10.1178 0.440351 10.1179 0.44089 10.1169L0.440862 7.88333C0.440324 7.88232 0.440295 7.88233 0.440267 7.88235L0.440862 7.88205L0.445587 7.87963L0.479739 7.8619C0.511995 7.84498 0.562858 7.81788 0.630406 7.78061C0.765562 7.70604 0.967119 7.59098 1.21975 7.43551C1.72574 7.12413 2.43246 6.65323 3.219 6.02398C4.80096 4.7584 6.65649 2.89169 7.88184 0.440918L10.1179 1.55893C8.6766 4.44165 6.53213 6.57502 4.78075 7.97614C4.28474 8.37296 3.81631 8.7142 3.39856 9.00006C3.8163 9.28591 4.28473 9.62713 4.78074 10.0239Z" fill="black"/>
</svg>
